<svg viewBox="0 0 3673 569" xmlns="http://www.w3.org/2000/svg" fill-rule="evenodd" clip-rule="evenodd" stroke-linejoin="round" stroke-miterlimit="2">
  <path d="M0 402h3671.9l.1-169.8s-470.9 42.2-926.1-135.6c-548.1-214-976-9-1036 14.3-146.1 56.5-367.1 233.8-1099.5 53.8C336.1 87.8 0 140.7 0 140.7V402z" fill="url(#_Linear1)" transform="translate(.011316 -.0116717)"/>
  <path d="M0 567.8h3672l.1-178.6s-495.2 44.3-973.9-142.6c-576.4-225-1026.3-9.4-1089.5 15-153.7 59.4-386 245.9-1156.2 56.6C164.1 237.4 0 273.2 0 273.2v294.6z" fill="url(#_Linear2)" transform="translate(-2e-7 .4087553)"/>
  <defs>
    <linearGradient id="_Linear1" x1="0" y1="0" x2="1" y2="0" gradientUnits="userSpaceOnUse" gradientTransform="rotate(-90 1118.989 -717.001) scale(401.988)">
      <stop offset="0" stop-color="#202020"/>
      <stop offset="1" stop-color="#424242"/>
    </linearGradient>
    <linearGradient id="_Linear2" x1="0" y1="0" x2="1" y2="0" gradientUnits="userSpaceOnUse" gradientTransform="rotate(-90 1201.909 -634.121) scale(422.727)">
      <stop offset="0" stop-color="#121212"/>
      <stop offset="1" stop-color="#202020"/>
    </linearGradient>
  </defs>
</svg>