<?xml version="1.0" encoding="UTF-8" standalone="no"?>
<!DOCTYPE svg PUBLIC "-//W3C//DTD SVG 1.1//EN" "http://www.w3.org/Graphics/SVG/1.1/DTD/svg11.dtd">
<svg width="100%" height="100%" viewBox="0 0 3673 569" version="1.1" xmlns="http://www.w3.org/2000/svg" xmlns:xlink="http://www.w3.org/1999/xlink" xml:space="preserve" xmlns:serif="http://www.serif.com/" style="fill-rule:evenodd;clip-rule:evenodd;stroke-linejoin:round;stroke-miterlimit:2;">
    <g transform="matrix(1,0,0,1,-0.988684,-0.0116717)">
        <g transform="matrix(1,0,0,1,1,0)">
            <path id="startwave1_1_" d="M0,402L3671.9,402L3672,232.2C3672,232.2 3201.1,274.4 2745.9,96.6C2197.8,-117.4 1769.9,87.6 1709.9,110.9C1563.8,167.4 1342.8,344.7 610.4,164.7C336.1,87.8 0,140.7 0,140.7L0,402Z" style="fill:url(#_Linear1);"/>
            <g id="startwave1_2_" transform="matrix(1,0,0,1,-0.0113162,0.420427)">
                <path d="M0,567.8L3672,567.8L3672.1,389.2C3672.1,389.2 3176.9,433.5 2698.2,246.6C2121.8,21.6 1671.9,237.2 1608.7,261.6C1455,321 1222.7,507.5 452.5,318.2C164.1,237.4 0,273.2 0,273.2L0,567.8Z" style="fill:url(#_Linear2);"/>
            </g>
        </g>
    </g>
    <defs>
        <linearGradient id="_Linear1" x1="0" y1="0" x2="1" y2="0" gradientUnits="userSpaceOnUse" gradientTransform="matrix(2.46147e-14,-401.988,401.988,2.46147e-14,1835.99,401.988)"><stop offset="0" style="stop-color:rgb(32,32,32);stop-opacity:1"/><stop offset="1" style="stop-color:rgb(66,66,66);stop-opacity:1"/></linearGradient>
        <linearGradient id="_Linear2" x1="0" y1="0" x2="1" y2="0" gradientUnits="userSpaceOnUse" gradientTransform="matrix(2.58846e-14,-422.727,422.727,2.58846e-14,1836.03,567.788)"><stop offset="0" style="stop-color:rgb(18,18,18);stop-opacity:1"/><stop offset="1" style="stop-color:rgb(32,32,32);stop-opacity:1"/></linearGradient>
    </defs>
</svg>
