<?xml version="1.0" encoding="UTF-8" standalone="no"?>
<!DOCTYPE svg PUBLIC "-//W3C//DTD SVG 1.1//EN" "http://www.w3.org/Graphics/SVG/1.1/DTD/svg11.dtd">
<svg width="100%" height="100%" viewBox="0 0 500 500" version="1.1" xmlns="http://www.w3.org/2000/svg" xmlns:xlink="http://www.w3.org/1999/xlink" xml:space="preserve" xmlns:serif="http://www.serif.com/" style="fill-rule:evenodd;clip-rule:evenodd;stroke-linecap:round;stroke-linejoin:round;stroke-miterlimit:1.5;">
    <g id="Layer1" opacity="0.5">
        <g transform="matrix(1,0,0,1,10.048,-0.240793)">
            <path d="M269.195,54.286C269.195,54.286 246.355,59.698 224.132,72.125C205.009,82.818 197.099,88.002 171.182,110.66C139.051,138.75 119.196,164.548 100.222,189.733C68.175,232.272 38.861,294.415 38.861,294.415C38.861,294.415 110.269,250.706 196.604,206.415C274.627,166.387 351.525,134.179 351.525,134.179C351.525,134.179 344.99,133.289 336.804,134.032C327.135,134.91 314.035,135.903 295.126,140.217C257.166,148.877 237.591,159.731 237.591,159.731C237.591,159.731 255.3,135.628 293.645,106.068C321.336,84.721 363.412,61.269 363.412,61.269C362.685,61.252 331.702,66.364 293.896,79.257C285.461,82.133 276.845,85.413 268.378,89.132C214.674,112.721 200.414,128.999 200.414,128.999C200.414,128.999 210.041,109.185 232.669,88.025C249.536,72.253 269.195,54.286 269.195,54.286Z" style="fill:url(#_Linear1);"/>
            <clipPath id="_clip2">
                <path d="M269.195,54.286C269.195,54.286 246.355,59.698 224.132,72.125C205.009,82.818 197.099,88.002 171.182,110.66C139.051,138.75 119.196,164.548 100.222,189.733C68.175,232.272 38.861,294.415 38.861,294.415C38.861,294.415 110.269,250.706 196.604,206.415C274.627,166.387 351.525,134.179 351.525,134.179C351.525,134.179 344.99,133.289 336.804,134.032C327.135,134.91 314.035,135.903 295.126,140.217C257.166,148.877 237.591,159.731 237.591,159.731C237.591,159.731 255.3,135.628 293.645,106.068C321.336,84.721 363.412,61.269 363.412,61.269C362.685,61.252 331.702,66.364 293.896,79.257C285.461,82.133 276.845,85.413 268.378,89.132C214.674,112.721 200.414,128.999 200.414,128.999C200.414,128.999 210.041,109.185 232.669,88.025C249.536,72.253 269.195,54.286 269.195,54.286Z"/>
            </clipPath>
            <g clip-path="url(#_clip2)">
                <g transform="matrix(0.827065,-0.48155,0.49713,0.853823,-60.8828,188.35)">
                    <rect x="31.107" y="38.248" width="420.261" height="130.789" style="fill:url(#_Linear3);stroke:rgb(75,144,217);stroke-opacity:0;stroke-width:2.14px;"/>
                </g>
            </g>
        </g>
        <g transform="matrix(1,0,0,1,-1.60796,13.4763)">
            <path d="M313.01,152.442C313.01,152.442 257.392,176.174 234.377,187.111C210.976,198.231 168.025,224.216 168.025,224.216C168.025,224.216 156.369,269.255 170.255,327.965C185.188,391.107 211.888,438.478 211.888,438.478C211.767,438.642 222.549,350.135 226.316,334.202C228.667,324.263 232.333,300.855 237.321,287.856C240.416,279.793 258.493,248.416 277.679,225.102C308.904,187.159 312.024,154.496 313.01,152.442Z" style="fill:url(#_Linear4);"/>
            <clipPath id="_clip5">
                <path d="M313.01,152.442C313.01,152.442 257.392,176.174 234.377,187.111C210.976,198.231 168.025,224.216 168.025,224.216C168.025,224.216 156.369,269.255 170.255,327.965C185.188,391.107 211.888,438.478 211.888,438.478C211.767,438.642 222.549,350.135 226.316,334.202C228.667,324.263 232.333,300.855 237.321,287.856C240.416,279.793 258.493,248.416 277.679,225.102C308.904,187.159 312.024,154.496 313.01,152.442Z"/>
            </clipPath>
            <g clip-path="url(#_clip5)">
                <g transform="matrix(0.180407,-0.831696,1.0761,0.233423,-57.0276,398.597)">
                    <rect x="18.938" y="162.037" width="358.118" height="145.763" style="fill:url(#_Linear6);stroke:rgb(75,144,217);stroke-opacity:0;stroke-width:2.12px;"/>
                </g>
            </g>
        </g>
        <g transform="matrix(1,0.000166932,-0.000166932,1,-1.65587,5.03288)">
            <path d="M243.232,304.792C243.232,304.792 264.213,280.372 343.786,259.371C431.338,236.264 452.01,255.454 454.277,254.839C454.277,254.839 408.723,276.349 344.886,319.705C275.644,366.732 219.279,435.373 219.279,435.373C219.279,435.373 221.077,412.163 225.154,388.27C227.768,372.948 232.915,343.849 237.172,326.96C240.642,313.195 243.232,304.792 243.232,304.792Z" style="fill:url(#_Linear7);"/>
            <clipPath id="_clip8">
                <path d="M243.232,304.792C243.232,304.792 264.213,280.372 343.786,259.371C431.338,236.264 452.01,255.454 454.277,254.839C454.277,254.839 408.723,276.349 344.886,319.705C275.644,366.732 219.279,435.373 219.279,435.373C219.279,435.373 221.077,412.163 225.154,388.27C227.768,372.948 232.915,343.849 237.172,326.96C240.642,313.195 243.232,304.792 243.232,304.792Z"/>
            </clipPath>
            <g clip-path="url(#_clip8)">
                <g transform="matrix(0.692009,-0.485245,0.561325,0.800508,-40.3805,174.321)">
                    <rect x="73.987" y="273.811" width="368.14" height="134.777" style="fill:url(#_Linear9);stroke:rgb(75,144,217);stroke-opacity:0;stroke-width:2.28px;"/>
                </g>
            </g>
        </g>
    </g>
    <defs>
        <linearGradient id="_Linear1" x1="0" y1="0" x2="1" y2="0" gradientUnits="userSpaceOnUse" gradientTransform="matrix(349.335,0,0,246.392,38.8609,171.219)"><stop offset="0" style="stop-color:rgb(15,183,130);stop-opacity:1"/><stop offset="0.06" style="stop-color:rgb(15,183,127);stop-opacity:1"/><stop offset="0.08" style="stop-color:rgb(14,183,119);stop-opacity:1"/><stop offset="0.09" style="stop-color:rgb(12,182,110);stop-opacity:1"/><stop offset="0.16" style="stop-color:rgb(29,194,129);stop-opacity:1"/><stop offset="0.24" style="stop-color:rgb(66,220,171);stop-opacity:1"/><stop offset="0.44" style="stop-color:rgb(144,255,199);stop-opacity:1"/><stop offset="0.61" style="stop-color:rgb(160,255,210);stop-opacity:1"/><stop offset="0.62" style="stop-color:rgb(154,255,212);stop-opacity:1"/><stop offset="0.64" style="stop-color:rgb(150,255,214);stop-opacity:1"/><stop offset="0.7" style="stop-color:rgb(148,255,215);stop-opacity:1"/><stop offset="0.79" style="stop-color:rgb(144,255,223);stop-opacity:1"/><stop offset="1" style="stop-color:rgb(141,255,229);stop-opacity:1"/></linearGradient>
        <linearGradient id="_Linear3" x1="0" y1="0" x2="1" y2="0" gradientUnits="userSpaceOnUse" gradientTransform="matrix(452.353,0,0,134.201,31.1069,101.936)"><stop offset="0" style="stop-color:rgb(18,199,130);stop-opacity:1"/><stop offset="0.16" style="stop-color:rgb(24,202,135);stop-opacity:1"/><stop offset="0.21" style="stop-color:rgb(43,210,151);stop-opacity:1"/><stop offset="0.24" style="stop-color:rgb(66,220,171);stop-opacity:1"/><stop offset="0.44" style="stop-color:rgb(144,255,199);stop-opacity:1"/><stop offset="0.61" style="stop-color:rgb(160,255,210);stop-opacity:1"/><stop offset="0.62" style="stop-color:rgb(154,255,212);stop-opacity:1"/><stop offset="0.64" style="stop-color:rgb(150,255,214);stop-opacity:1"/><stop offset="0.7" style="stop-color:rgb(148,255,215);stop-opacity:1"/><stop offset="0.79" style="stop-color:rgb(144,255,223);stop-opacity:1"/><stop offset="1" style="stop-color:rgb(141,255,229);stop-opacity:1"/></linearGradient>
        <linearGradient id="_Linear4" x1="0" y1="0" x2="1" y2="0" gradientUnits="userSpaceOnUse" gradientTransform="matrix(415.416,0,0,394.876,38.8609,245.461)"><stop offset="0" style="stop-color:rgb(72,214,232);stop-opacity:1"/><stop offset="0" style="stop-color:rgb(0,214,232);stop-opacity:1"/><stop offset="0.25" style="stop-color:rgb(9,218,230);stop-opacity:1"/><stop offset="0.34" style="stop-color:rgb(29,226,226);stop-opacity:1"/><stop offset="0.42" style="stop-color:rgb(48,233,223);stop-opacity:1"/><stop offset="0.63" style="stop-color:rgb(111,255,229);stop-opacity:1"/><stop offset="0.8" style="stop-color:rgb(121,255,227);stop-opacity:1"/><stop offset="1" style="stop-color:rgb(144,255,223);stop-opacity:1"/></linearGradient>
        <linearGradient id="_Linear6" x1="0" y1="0" x2="1" y2="0" gradientUnits="userSpaceOnUse" gradientTransform="matrix(994.687,0,0,201.226,-279.375,209.438)"><stop offset="0" style="stop-color:rgb(72,214,232);stop-opacity:1"/><stop offset="0" style="stop-color:rgb(0,214,232);stop-opacity:1"/><stop offset="0.25" style="stop-color:rgb(9,218,230);stop-opacity:1"/><stop offset="0.34" style="stop-color:rgb(29,226,226);stop-opacity:1"/><stop offset="0.42" style="stop-color:rgb(48,233,223);stop-opacity:1"/><stop offset="0.63" style="stop-color:rgb(111,255,229);stop-opacity:1"/><stop offset="0.8" style="stop-color:rgb(121,255,227);stop-opacity:1"/><stop offset="1" style="stop-color:rgb(144,255,223);stop-opacity:1"/></linearGradient>
        <linearGradient id="_Linear7" x1="0" y1="0" x2="1" y2="0" gradientUnits="userSpaceOnUse" gradientTransform="matrix(415.416,0,0,394.876,38.8609,245.461)"><stop offset="0" style="stop-color:rgb(141,255,229);stop-opacity:1"/><stop offset="0.25" style="stop-color:rgb(123,244,230);stop-opacity:1"/><stop offset="0.5" style="stop-color:rgb(72,214,232);stop-opacity:1"/><stop offset="0.74" style="stop-color:rgb(67,193,251);stop-opacity:1"/><stop offset="1" style="stop-color:rgb(95,155,255);stop-opacity:1"/></linearGradient>
        <linearGradient id="_Linear9" x1="0" y1="0" x2="1" y2="0" gradientUnits="userSpaceOnUse" gradientTransform="matrix(650.775,0,0,283.947,-208.649,272.026)"><stop offset="0" style="stop-color:rgb(167,255,229);stop-opacity:1"/><stop offset="0.31" style="stop-color:rgb(150,250,230);stop-opacity:1"/><stop offset="0.43" style="stop-color:rgb(111,239,231);stop-opacity:1"/><stop offset="0.53" style="stop-color:rgb(72,227,232);stop-opacity:1"/><stop offset="0.65" style="stop-color:rgb(71,217,237);stop-opacity:1"/><stop offset="0.78" style="stop-color:rgb(67,193,251);stop-opacity:1"/><stop offset="0.89" style="stop-color:rgb(74,183,252);stop-opacity:1"/><stop offset="1" style="stop-color:rgb(95,155,255);stop-opacity:1"/></linearGradient>
    </defs>
</svg>
